<svg xmlns="http://www.w3.org/2000/svg" width="300" height="177.86522"><path d="M196.044 700.494h.843v-5.316h-.843v5.316ZM197.842 697.733c0-.434-.016-.741-.031-1.08h.734l.038.449h.017a1.03 1.03 0 0 1 .906-.513c.647 0 .986.498.986 1.389v2.516h-.844v-2.437c0-.38-.078-.758-.45-.758-.205 0-.393.158-.472.474-.024.079-.04.205-.04.346v2.375h-.844v-2.761ZM202.369 695.698v.954h.741v.616h-.741v1.988c0 .472.181.591.395.591.094 0 .172-.007.26-.024l.015.655a1.983 1.983 0 0 1-.551.063c-.269 0-.513-.071-.679-.236-.189-.19-.284-.474-.284-1.042v-1.995h-.457v-.616h.457v-.661l.844-.293ZM204.38 698.798c.008.86.41 1.096.86 1.096.277 0 .513-.062.687-.142l.117.607c-.236.11-.607.182-.96.182-.987 0-1.523-.718-1.523-1.91 0-1.268.615-2.042 1.435-2.042.805 0 1.215.734 1.215 1.759 0 .221-.017.348-.024.45h-1.806zm1.05-.6c.006-.615-.198-.977-.497-.977-.364 0-.529.528-.545.977h1.041ZM206.912 697.733c0-.355-.024-.749-.031-1.08h.734l.046.584h.024c.15-.395.466-.648.78-.648a.83.83 0 0 1 .175.016v.844c-.048-.016-.103-.016-.174-.016-.291 0-.591.245-.679.662a1.626 1.626 0 0 0-.031.372v2.027h-.844v-2.761ZM209.16 697.733c0-.434-.016-.741-.031-1.08h.734l.038.449h.017a1.03 1.03 0 0 1 .906-.513c.647 0 .986.498.986 1.389v2.516h-.844v-2.437c0-.38-.078-.758-.45-.758-.205 0-.393.158-.472.474-.024.079-.04.205-.04.346v2.375h-.844v-2.761ZM215.02 699.618c0 .3.007.623.048.875h-.758l-.046-.394h-.016c-.198.3-.481.458-.813.458-.552 0-.97-.465-.97-1.136 0-.987.835-1.404 1.704-1.412v-.102c0-.395-.159-.679-.576-.679-.276 0-.505.079-.718.213l-.157-.575a2.13 2.13 0 0 1 1.056-.277c.994 0 1.246.68 1.246 1.5v1.53zm-.827-1.049c-.331.007-.924.094-.924.765 0 .434.229.592.419.592.205 0 .41-.143.481-.442a.784.784 0 0 0 .024-.197v-.718ZM216.905 695.698v.954h.741v.616h-.74v1.988c0 .472.18.591.394.591.094 0 .173-.007.26-.024l.015.655a1.983 1.983 0 0 1-.551.063c-.269 0-.513-.071-.679-.236-.189-.19-.284-.474-.284-1.042v-1.995h-.457v-.616h.457v-.661l.844-.293ZM219.114 695.65a.448.448 0 0 1-.465.482c-.245 0-.443-.197-.434-.481-.01-.3.197-.489.449-.489.26 0 .45.189.45.489m-.868 1.001h.844v3.841h-.844v-3.841ZM222.56 698.561c0 1.554-.796 1.995-1.38 1.995-.812 0-1.372-.677-1.372-1.971 0-1.389.686-1.995 1.404-1.995.805 0 1.349.709 1.349 1.971m-1.91.008c0 .648.11 1.342.56 1.342.418 0 .513-.765.513-1.342 0-.56-.095-1.325-.529-1.325-.457 0-.543.765-.543 1.325M223.286 697.733c0-.434-.016-.741-.031-1.08h.734l.038.449h.017a1.03 1.03 0 0 1 .906-.513c.647 0 .986.498.986 1.389v2.516h-.844v-2.437c0-.38-.079-.758-.45-.758-.205 0-.393.158-.472.474-.024.079-.04.205-.04.346v2.375h-.844v-2.761ZM229.146 699.618c0 .3.007.623.048.875h-.758l-.046-.394h-.016c-.198.3-.481.458-.813.458-.552 0-.97-.465-.97-1.136 0-.987.835-1.404 1.704-1.412v-.102c0-.395-.157-.679-.576-.679-.276 0-.505.079-.718.213l-.157-.575a2.13 2.13 0 0 1 1.056-.277c.994 0 1.246.68 1.246 1.5v1.53zm-.827-1.049c-.333.007-.924.094-.924.765 0 .434.229.592.419.592.205 0 .41-.143.481-.442a.784.784 0 0 0 .024-.197v-.718ZM230.021 695.035h.844v5.458h-.844v-5.458ZM232.443 698.798c.007.86.41 1.096.86 1.096.276 0 .513-.062.686-.142l.118.607c-.236.11-.608.182-.961.182-.987 0-1.523-.718-1.523-1.91 0-1.268.615-2.042 1.435-2.042.805 0 1.215.734 1.215 1.759 0 .221-.016.348-.024.45h-1.806zm1.049-.6c.007-.615-.198-.977-.496-.977-.364 0-.53.528-.545.977h1.04ZM196.044 702.291h2.185v.734h-1.342v1.585h1.255v.702h-1.255v2.295h-.843v-5.316ZM199.853 702.764a.448.448 0 0 1-.465.482c-.245 0-.442-.198-.434-.482-.009-.3.198-.488.45-.488.26 0 .45.188.45.488m-.868 1.002h.843v3.84h-.843v-3.84ZM200.697 702.149h.844v5.457h-.844v-5.457ZM202.448 704.846c0-.433-.016-.74-.031-1.08h.734l.046.458h.016c.181-.293.489-.521.891-.521.395 0 .687.19.82.552h.017c.102-.165.236-.316.386-.41.157-.095.339-.142.536-.142.608 0 .963.473.963 1.42v2.485h-.837v-2.328c0-.465-.062-.875-.44-.875-.215 0-.388.165-.466.449-.016.079-.024.19-.024.307v2.447h-.845v-2.454c0-.346-.046-.749-.426-.749-.196 0-.394.158-.465.474a1.092 1.092 0 0 0-.039.299v2.43h-.836v-2.762ZM207.85 707.607v-3.226h-.497v-.615h.497v-.189c0-.426.08-.836.372-1.144.229-.245.544-.347.851-.347.245 0 .426.04.56.087l-.11.663a.866.866 0 0 0-.324-.056c-.386 0-.505.37-.505.78v.206h.679v.615h-.679v3.226h-.843ZM210.509 705.911c.008.86.41 1.097.86 1.097.276 0 .512-.063.686-.143l.117.608c-.236.11-.607.18-.96.18-.987 0-1.523-.717-1.523-1.908 0-1.269.615-2.042 1.435-2.042.805 0 1.215.733 1.215 1.758 0 .222-.017.348-.024.45h-1.806zm1.049-.6c.007-.615-.198-.977-.497-.977-.364 0-.529.529-.545.977h1.042ZM212.978 706.81c.141.095.41.205.662.205.3 0 .481-.165.481-.44 0-.238-.11-.396-.465-.625-.568-.338-.78-.71-.78-1.096 0-.662.488-1.151 1.174-1.151.315 0 .553.087.741.19l-.173.622a.97.97 0 0 0-.529-.165c-.291 0-.433.19-.433.402 0 .205.094.323.465.56.513.307.782.686.782 1.16 0 .78-.545 1.182-1.272 1.182-.298 0-.646-.086-.82-.22l.167-.624ZM216.574 702.811v.955h.74v.615h-.74v1.988c0 .474.18.591.395.591.093 0 .172-.008.26-.024l.015.655c-.127.04-.315.063-.552.063-.268 0-.512-.071-.678-.236-.19-.19-.284-.473-.284-1.042v-1.995h-.458v-.615h.458v-.662l.844-.293ZM217.852 706.81c.141.095.41.205.662.205.3 0 .481-.165.481-.44 0-.238-.11-.396-.465-.625-.568-.338-.78-.71-.78-1.096 0-.662.488-1.151 1.174-1.151.315 0 .553.087.741.19l-.173.622a.97.97 0 0 0-.528-.165c-.292 0-.434.19-.434.402 0 .205.094.323.465.56.513.307.78.686.78 1.16 0 .78-.543 1.182-1.27 1.182-.298 0-.646-.086-.82-.22l.167-.624ZM220.438 704.973c0-.513-.024-.883-.031-1.207h.734l.046.465h.016c.181-.355.474-.528.804-.528.766 0 1.152.828 1.152 1.98 0 1.388-.59 1.987-1.215 1.987-.338 0-.543-.205-.655-.402h-.015v1.853h-.836v-4.148zm.836 1.23c0 .118.015.237.04.323.102.372.3.45.433.45.426 0 .576-.607.576-1.286 0-.757-.181-1.27-.567-1.27-.214 0-.403.238-.45.49a1.072 1.072 0 0 0-.032.284v1.009ZM224.752 702.764a.447.447 0 0 1-.465.482c-.245 0-.442-.198-.433-.482-.01-.3.197-.488.448-.488.262 0 .45.188.45.488m-.867 1.002h.844v3.84h-.844v-3.84ZM226.267 705.911c.007.86.41 1.097.86 1.097.277 0 .513-.063.687-.143l.117.608c-.236.11-.607.18-.961.18-.986 0-1.523-.717-1.523-1.908 0-1.269.615-2.042 1.435-2.042.805 0 1.215.733 1.215 1.758 0 .222-.016.348-.023.45h-1.807zm1.05-.6c.007-.615-.198-.977-.498-.977-.363 0-.528.529-.544.977h1.041ZM228.799 702.149h.844v5.457h-.844v-5.457ZM231.22 705.911c.007.86.41 1.097.86 1.097.277 0 .513-.063.687-.143l.117.608c-.236.11-.607.18-.961.18-.986 0-1.523-.717-1.523-1.908 0-1.269.615-2.042 1.435-2.042.805 0 1.215.733 1.215 1.758 0 .222-.016.348-.023.45h-1.807zm1.05-.6c.007-.615-.198-.977-.497-.977-.364 0-.529.529-.545.977h1.041ZM196.044 709.484a4.486 4.486 0 0 1 1.048-.103c.49 0 .94.08 1.263.37.26.23.379.57.379.947 0 .497-.27.947-.79 1.168v.023c.616.174.963.671.963 1.31 0 .434-.142.789-.387 1.049-.308.338-.828.512-1.593.512-.386 0-.678-.024-.883-.055v-5.221zm.836 2.137h.252c.427 0 .773-.347.773-.828 0-.442-.205-.773-.725-.773-.126 0-.229.008-.3.031v1.57zm0 2.46c.071.017.157.024.269.024.512 0 .89-.307.89-.915 0-.623-.434-.93-.914-.938h-.245v1.83ZM200.303 713.025c.007.86.41 1.096.86 1.096.276 0 .512-.062.686-.142l.118.607c-.236.11-.608.182-.961.182-.987 0-1.523-.718-1.523-1.91 0-1.268.615-2.042 1.435-2.042.805 0 1.215.734 1.215 1.76 0 .22-.016.347-.024.45h-1.806zm1.049-.6c.007-.615-.198-.977-.496-.977-.364 0-.53.528-.545.977h1.04ZM202.835 711.96c0-.355-.024-.749-.032-1.08h.734l.046.584h.024c.15-.395.467-.648.782-.648.078 0 .126.008.173.017v.843c-.047-.016-.102-.016-.173-.016-.292 0-.592.245-.68.663a1.62 1.62 0 0 0-.03.37v2.028h-.844v-2.76ZM205.083 709.263h.843v5.457h-.843v-5.457ZM207.7 709.878a.448.448 0 0 1-.464.481c-.245 0-.443-.197-.434-.48-.01-.3.197-.49.449-.49.26 0 .45.19.45.49m-.868 1h.844v3.842h-.844v-3.842ZM208.545 711.96c0-.434-.016-.741-.031-1.08h.733l.04.449h.015a1.03 1.03 0 0 1 .907-.513c.647 0 .986.498.986 1.39v2.515h-.844v-2.437c0-.379-.079-.758-.45-.758-.205 0-.394.158-.472.474-.024.079-.04.205-.04.346v2.375h-.844v-2.76Z" style="fill:#000;fill-opacity:1;fill-rule:nonzero;stroke:none" transform="matrix(4.61334 0 0 4.61334 -780.781 -3126.953)"/><path d="M172.936 708.774c-.273.178-.708.328-1.034.136-.041-.027-.083-.08-.055-.136a.933.933 0 0 1 .816-.176c.11.04.205.095.273.176m-1.593-6.3c.45.299.913.735 1.198 1.198-.667-.068-1.21-.437-1.77-.777-.312-.217-.665-.476-.884-.816-.026-.069.015-.176.11-.176.49.067.897.366 1.346.571m3.879-18.775c.122.408.11.856.164 1.279l-.042.176-.448-.04c-.11-.109-.204-.272-.354-.312-.095-.015-.136.108-.178.176-.245-.136-.326-.435-.34-.735.082-.231-.122-.449.028-.654.067-.19.164-.449.395-.502.435-.11.599.353.775.612m1.007-5.444c.763.94 1.062 2.07 1.252 3.24.068.91 0 1.863-.232 2.694-.23.816-1.088 1.551-1.89 1.769.34.721.68 1.442.748 2.272-.014.382-.273.708-.613.87-.408.245-.98.22-1.428.124.598.789.952 1.673 1.4 2.53.056.164.11.381.015.531-.068.11-.19.095-.3.11.205.353.367.734.436 1.155-.014.273-.164.504-.381.682.055.503.367 1.306-.205 1.646-.367.245-.83.326-1.102.694.082.543.368.993.504 1.496l.245.991c.014.109-.069.205-.15.218-.436.108-.735-.204-1.089-.313-.04.218.178.394.26.585.367.461.83.87.993 1.414.04.122.081.286.026.422-.067.177-.259.15-.38.082l-.545-.245a4.416 4.416 0 0 1-.735-.095c-.041.136.081.245.164.353.544.6.707 1.374.735 2.178-.041.162-.178.272-.164.449-.204.15-.462.15-.707.177.15.313.245.666.298 1.02-.013.245-.245.395-.285.626.123.123.313.11.49.137.354.013.722-.028 1.007.122l.068.53c-.49.136-1.116-.271-1.51.191-.027.042-.027.095.027.137.448.272 1.17.61 1.06 1.265-.15.286-.448.545-.693.748.231.857.285 1.77.504 2.627.312.122.312.49.395.762.012.259.026.53.136.761.163-.49.163-1.1.448-1.565.653-.53 1.266-1.183 1.92-1.74.176-.165.407-.3.516-.518.069-.095.164 0 .245 0-.163-.218-.299-.477-.516-.68-.15-.247-.327-.49-.423-.763-.014-.04-.122-.054-.067-.122-.327-.75-.668-1.524-.804-2.368a7.335 7.335 0 0 1-.149-1.347c.054-.204.271-.177.394-.3-.259-.285.027-.612.069-.912 0-.448.23-.802.353-1.21l.068-.096c.041-.531.422-.925.545-1.429.149-.516.571-.923.666-1.467-.095-.544-.272-1.06-.299-1.645-.095-.081-.218-.068-.23-.218-.028-.285.094-.53.108-.816.054-.585.176-1.156.176-1.77-.64-1.197-.557-2.707-.666-4.136.04-.069.014-.15-.055-.191-.176-.15-.408-.313-.476-.53.027-.163-.232-.273-.082-.41h-.108c-.014-.053.053-.108.067-.162-.041-.027-.109.014-.15-.055l.109-.162c-.027-.028-.095-.014-.082-.083.11-.095.192-.162.232-.298.136-.11.286-.192.327-.354l-.068-.014c-.027-.081.04-.15.122-.177.109-.19.286-.368.504-.38.041.122-.082.217-.15.298.055.04.068-.04.122-.013.041.095-.19.245.014.286l.204-.041c.055-.082.136-.204.245-.218.055-.014.11.041.136.081.095-.026.245-.122.34-.013.041.027.055.082.055.122.15.137.259-.013.394-.054.258.232.586 0 .871-.027.531-.028.98-.204 1.456-.381.49-.04 1.049-.19 1.498.04-.028.082-.192.15-.164.258-.014.042-.081.07-.081.124.109.026.245.026.285.149.219-.095.232.232.45.096 0 .109.109.149.149.231.19-.068.367.013.545-.04.122-.054.285-.054.407-.068.3-.083.599-.205.939-.205.136-.054.327-.163.477-.04a.65.65 0 0 1 .327.109c.053.19-.055.38 0 .585.027.108.108.245.013.34-.258.15-.095.49-.205.707.042.041.083-.014.123-.04.027-.027.027-.069.082-.055l-.163.516c-.095.137-.273.192-.313.355-.191.258-.504.299-.749.517-.176.122-.298.353-.503.395-.11.067.068.177-.042.245-.217.095-.407.298-.448.503a1.938 1.938 0 0 0-.653.68c-.367.34-.572.749-.776 1.143a16.3 16.3 0 0 0 1.96.966c0 .136.19 0 .19.11h.191c.136.054.245-.041.395-.027l.516.053c.585.233 1.239.437 1.905.463.164.082.354-.026.504.055.789-.354 1.498-.885 2.478-.761.12.026.257.053.393.067.041 0 .041.068.082.014.218-.055.353.122.517.231l-.054.204c.11.082.272.082.422.082-.014.15.326.244.15.408.027.122.285 0 .23.176.068.069.205-.054.218.11.082 0 .082.095.042.135a.371.371 0 0 1-.178.178c.191.04.136.272.34.286.014.054.028.135-.054.149.028.04.082.04.137.04.026.04.04.028.067.028-.081.19-.326.177-.504.204-.258.095-.543.164-.76.354-.246 0-.45.205-.736.136-.095.095-.231.15-.259.285-.053.041-.15.055-.19.123-.218.013-.408-.042-.598-.068-.9.19-1.838.313-2.764.421-.095-.053-.19.013-.271-.067 0 .04-.042.054-.042.094-.177-.04-.258.38-.435.177l.028-.122-.096-.055.013.163c-.04-.054-.122-.014-.176-.054-.096-.082-.164-.19-.3-.163-.326.245-.654.502-.911.828l.04.068c-.271.327-.23.775-.354 1.156l-.245.884c-.135.164-.19.367-.299.545-.286.409-.557.816-.748 1.252l-.068.04-.531.98c.082.218.259.394.327.613.013.014.054 0 .054.04-.013.027-.027.081.028.081h.081c.49.749.939 1.525 1.551 2.219l.504.666c.299-.067.231.287.354.423.109-.014.027.136.109.177l.422.558c-.096 0-.11.15-.205.055-.041-.014-.095-.041-.136 0l-.04.067c-.069.585.081 1.089.109 1.647.136.72-.192 1.62.258 2.218.19.054.408.204.625.095.328.123.777 0 1.103.164.217.026.436.081.545.299.081.231 0 .49 0 .735-.041.136.041.381-.123.476-.108.028-.15-.082-.245-.082l-.381.013c-.054.124-.082.245-.164.327-.122.015-.19-.068-.285-.082-.952-.067-2-.026-2.898-.095l-.41.014c-.053-.027-.027-.109-.04-.164-.096-.108-.3.015-.353-.135.014-.095.04-.218-.082-.232l-.163-.026v-.164c-.191.013-.15-.299-.381-.218-.123.014-.286.054-.368-.054-.04-.056.042-.056.054-.11-.19-.19-.149-.476-.204-.735-.203-.447-.067-1.033-.163-1.537l-.122-1.129c-.205-.082-.232-.367-.45-.395-.027.109-.027.231.042.313-.095.082-.07.232-.095.353l-.818.927-1.292 1.156c-.014.054.013.095.04.136.546.027 1.034.231 1.566.299.067.15.298.041.312.245.164.409.042.885-.135 1.252-.177.014-.327-.108-.491-.013-.068.082-.095.272-.244.231-.068-.014-.164-.014-.177.081-.042.055.027.245-.137.178-.013-.081-.013-.178-.095-.218l-.72-.122-.082.041c-.314.013-.572-.014-.899 0-.054.04 0 .163-.095.163l.137.068c-.123.068-.3-.028-.423-.11 0-.04-.054-.108-.109-.108-.163.027-.353.082-.448.258-.123.055-.11-.163-.218-.23a.522.522 0 0 0-.517.108c-.095.069-.123.217-.273.177-.149.028-.204-.163-.352-.108a.527.527 0 0 0-.233-.437c-.19-.067-.449-.053-.544-.285-.108.123-.108-.108-.203-.082a.484.484 0 0 0-.083-.271l-.095.026c-.067.055-.122.314-.312.286-.382-.407-.014-1.144-.41-1.537-.217.08-.38.326-.53.503l-.49.6c.558.257 1.13.488 1.715.707.122.095.122.285.068.407-.041.068-.095.15-.177.15-.708-.245-1.361-.571-2.028-.911-.177.122-.272-.11-.38-.178-.382-.19-.75-.407-1.143-.557-.083-.123.135-.095.163-.204.23-.164.435.068.653.109-.3-.681-.558-1.403-1.02-2.029-.096-.095-.191-.216-.314-.244-.162.123-.162.34-.217.53-.055 1.43.298 2.708.83 3.905.068.095.08.245.217.273.19-.068.381-.123.599-.109a.105.105 0 0 1 .027.136c-.298.164-.53.45-.72.735-.096.028-.192-.027-.232-.108-.681-1.334-.939-2.844-1.061-4.423-.014-.545-.082-1.184.42-1.456.342-.028.586.299.75.557l1.047 1.933c.095.109.191.245.328.286.176.014.298-.122.42-.245l.967-1.075a19.954 19.954 0 0 0-.585-2.559c-.449.218-1.144.368-1.592.028-.095-.136-.054-.314-.095-.463-.028-.11-.083-.272.055-.353.407-.245 1.033-.49 1.482-.15.095.067.204.135.245.23.19-.108.423-.258.558-.462.027-.122-.054-.217-.15-.3-.313-.272-.694-.407-.94-.747-.025-.15.056-.273.165-.368l.19-.123c-.177-.122-.53.04-.572-.232-.122-.46.504-.638.463-1.087-.054-.34-.095-.68-.285-.953-.98 0-1.661-.695-2.45-1.143-.354-.273-.761-.585-.98-.98-.095-.204-.109-.503.041-.694.259-.204.654-.123.925-.014.966.45 2.069 1.156 2.545 2.205.245-.014.544.04.776-.041.163-.368-.027-.735-.122-1.061-.259-.667-.994-1.13-1.266-1.797.068-.19-.028-.367.013-.557.123-.123.286-.014.423 0 .462.15.883.409 1.401.409.04 0 .067-.043.067-.096-.19-.382-.557-.68-.802-1.033l-.504-.897c-.027-.204.123-.325.245-.475.245-.137.368.243.571.312.137.041.273.176.423.068.136-.083.067-.23.054-.354-.218-.679-.64-1.291-.722-2.026 0-.15.028-.34.205-.327.463-.231 1.02-.286 1.43-.653.08-.245.04-.558 0-.803-.56-.055-1.076-.572-1.267-1.061-.163-.381 0-.804.177-1.13.068-.04.15 0 .218.013.014.422-.218.925.177 1.198.19.15.408.204.653.204.082-.013.164-.109.205-.177.054-.34-.109-.626-.355-.857-.121-.136-.299-.204-.421-.326.067-.205-.123-.477.067-.627.178.042.3.26.49.245.11-.08.041-.23.028-.326a7.685 7.685 0 0 0-1.51-2.477c-.83-.408-1.593-1.02-2.26-1.742-.258-.19-.095-.53-.122-.803.177-.068.367.027.558.055.735.381 1.251 1.183 1.837 1.782.53.368 1.388.463 1.973.164.122-.069.245-.178.286-.3 0-.858-.45-1.551-.899-2.218-.448-.055-.87-.23-1.142-.64-.314-.517-.083-1.197-.083-1.782.014-.518.368-.911.777-1.239.272-.122.448.205.667.328l.34.19c.449.626.475 1.47.421 2.272.763-.204 1.212-1.047 1.307-1.782.122-1.198 0-2.395-.354-3.443-.15-.395-.34-.749-.68-1.049-.109.095.026.437-.233.34-.095-.257-.216-.502-.285-.76.07-.19-.013-.45.164-.572.245.014.326.285.476.449m-4.886 21.335c.069.081.055.217.014.312-.068.149-.204.313-.368.353a.225.225 0 0 1-.243-.137c-.042-.148-.055-.352.04-.475a.356.356 0 0 1 .245-.176.345.345 0 0 1 .312.123m18.958-8.285c.08.04.19.108.243.19 0 .096-.122.191-.04.286.068.041.232.014.218.15-.095.012-.15.081-.191.15.013.149.232.149.136.326l-.285.245c0 .204.026.49-.178.599 0 .027-.04.067 0 .081-.027.081-.027.205-.136.232-.067-.054-.162-.014-.217.055-.028.053-.095.053-.137.04-.462.258-.993.355-1.565.367-.095.095-.067.259-.15.368-.135.217-.23.517-.516.585l.258-.368c-.122.055-.244.273-.367.124-.15.04-.122.299-.313.257l-.218.11c-.367-.013-.68-.177-1.047-.177-.028-.055 0-.136-.082-.15-.055.067-.095-.082-.136 0-.055 0-.055-.068-.069-.095-.013.027-.04.067-.08.041.027-.069-.068-.055-.042-.136 0-.014-.026-.041-.04-.055-.069 0-.055.067-.055.108-.041 0-.081 0-.095-.027-.028.027-.055.055-.109.055-.027.014-.055 0-.055-.028.055-.053 0-.122.083-.162-.014-.041-.055-.028-.083-.028-.054.028-.013.11-.067.082 0-.04-.055-.082-.014-.123-.123 0-.218.137-.34.123.516-.558 1.02-1.225 1.66-1.633.312-.177.545-.517.844-.707.23-.668 1.033-.518 1.578-.721.354-.055.694-.15 1.062-.15.081-.15.286-.095.42-.11.028.042.056.177.125.096" style="fill:#000;fill-opacity:1;fill-rule:evenodd;stroke:none" transform="matrix(4.61334 0 0 4.61334 -780.781 -3126.953)"/></svg>