<svg xmlns="http://www.w3.org/2000/svg" width="546.35999" height="324.45999"><path d="M8.813 73.096c-.736-9.44 16.856-35.411 32.64-35.411 16.437 0 25.448 15.72 36.507 29.367C90.026 81.63 98.353 87.218 104.684 83.49c4.941-3.022 4.879-11.257 2.43-17.581-3.18-7.68-9.536-13.794-5.856-23.97 3.478-9.343 14.83-15.317 28.202-17.354 12.78-1.886 35.754-.58 49.79-4.518 23.677-6.695 29.688-20.107 40.817-13.092 5.945 3.92 6.923 11.537 3.945 21.188-2.42 7.728-6.475 17.5-15.092 25.073-6.129 5.408-15.25 9.474-24.6 13.816-11.875 5.357-20.875 9.864-18.89 22.938.725 4.577 7.662 7.838 14.13 7.158 8.87-1.004 19.183-4.173 28.687-4.643 14.886-.684 36.46 6.739 46.783 11.669 10.213 4.985 18.478 12.434 34.305 28.665 5.42 5.563 22.06 26.247 23.997 28.283 7.165 7.1 14.397 13.545 18.614 17.07 2.165 1.68 1.717 2.162 1.717 2.162s-.357.143-1.497-.327c-1.94-.794-5.64-2.82-12.26-7.18-6.905-4.625-37.302-30.647-41.045-33.636-5.801-4.548-18.445-14.953-25.787-8.394-3.43 3.048-2.522 10.077-1.503 13.254 1.058 3.309 5.878 10.316 8.628 16.46 3.122 6.955 2.846 20.669 4.537 26.827 1.574 6.272 8.912 20.298 3.165 28.375-3.786 5.412-12.367 8.169-19.963 8.515-5.967.36-12.147-1.052-13.934-5.276-4.842-11.515 9.188-13.956 4.57-24.133-1.695-3.5-7.103-2.808-9.606-1.875-4.61 1.728-8.64 5.375-12.556 8.548-2.055 1.747-11.78 9.324-20.489 15.92-7.294 5.613-17.367 6.04-20.867 1.393-8.044-10.772 13.088-17.39 17.867-21.129 13.096-10.033 23.666-23.783 13.386-37.125-7.584-10.026-20.948-8.132-38.095-3.912-18.953 4.614-40.908 10.566-53.695 13.875-14.254 3.699-31.5 6.173-40.31 9.963-7.598 3.203-26.808 23.596-28.271 25.217-1.577 1.618-11.408 11.247-14.769 13.46-5.886 3.746-21.94 8.776-25.544.643-3.632-8.272 9.511-12.808 15.066-17.088 5.147-4.04 18.258-16.243 18.258-27.64 0-9.933-7.78-16.492-11.537-35.672-3.007-15.026 0-23.25-2.158-34.842C22.846 91.222 9.875 87.347 8.813 73.096m327.59 108.885s5.865-1.103 12.622.794c6.482 1.717 12.088 4.188 11.15 8.191-.87 3.622-8.37 2.25-11.881.886-8.93-3.658-11.89-9.871-11.89-9.871m187.26 126.105h7.177l-3.46-13.408h-.08l-3.637 13.408zm-.084-19.349h7.345l8.754 30.879h-5.85l-1.705-6.662h-9.743l-1.83 6.662h-5.85zm-16.352 9.016c-.85-2.607-2.688-4.441-5.592-4.441-3.93 0-6.32 3.669-6.32 10.886-.08 7.217 2.048 10.89 6.49 10.89 2.653 0 4.271-.938 6.017-4.567l5.475 1.449c-1.842 5.338-5.853 8.073-11.493 8.073-7.857 0-12.382-5.768-12.382-15.845 0-10.074 4.525-15.842 12.382-15.842 5.893 0 9.309 2.65 10.761 8.114zm-29.077-8.97h5.894v30.831h-5.894zm-24.463 30.833v-30.831h19.643v4.952h-13.75v7.346h10.29v4.952h-10.29v13.58zm-19.807-11.53h7.169l-3.456-13.408h-.085l-3.628 13.408zm-.089-19.349h7.346l8.75 30.879h-5.85l-1.705-6.662H432.6l-1.842 6.662h-5.849zm-28.608 13.543h4.353c4.614 0 6.019-1.452 6.019-4.357 0-2.904-1.747-4.356-4.99-4.356h-5.382zm-5.893 17.334v-30.83h12.298c7.003 0 9.816 4.058 9.864 9.14.044 3.797-1.875 6.874-5.636 7.94l6.79 13.75h-6.537l-5.808-12.555h-5.078v12.555zm-11.866-21.95c-1.412-3.073-3.122-4.352-6.195-4.352-4.353 0-6.485 4.353-6.485 11.187 0 6.493 2.426 10.589 6.533 10.589 3.838 0 6.316-2.56 6.445-6.107h-5.853v-4.952h11.533v15.588h-4.269v-3.162c-2.481 2.732-4.783 3.588-8.033 3.588-8.367 0-12.254-6.665-12.254-15.375 0-7.856 2.986-16.312 12.853-16.312 6.151 0 9.736 3.33 11.188 7.857zm-34.034-4.351c-4.824 0-7.044 3.669-7.044 10.886-.089 7.217 2.18 10.89 7.044 10.89 4.827 0 7.048-3.673 7.048-10.89 0-7.217-2.221-10.886-7.048-10.886m0 26.731c-8.412 0-12.934-5.768-12.934-15.845 0-10.078 4.522-15.842 12.934-15.842 8.415 0 12.941 5.764 12.941 15.842 0 10.077-4.526 15.845-12.941 15.845m-14.984-31.305v4.956h-8.07v25.923h-5.893v-25.923h-8.07v-4.956zm-37.022 19.347h7.173l-3.456-13.408h-.088l-3.629 13.408zm-.088-19.349h7.35l8.75 30.879h-5.846l-1.71-6.662h-9.735l-1.838 6.662h-5.853zm-41.46 30.879v-30.831h8.283l5.941 21.518h.081l5.978-21.518h8.375v30.83h-5.125v-24.253h-.088l-6.915 24.254h-4.49l-6.83-24.254h-.081v24.254h-5.129zm-25.87 0v-30.831h20.408v4.952h-14.511v7.346h10.544v4.952h-10.544v8.629h14.981v4.952zm-30.871 0v-30.831h6.15l12.13 21.007h.084v-21.007h5.551v30.83h-5.68l-12.595-21.951h-.089v21.952h-5.551zm-13.449-30.833h5.89v30.831h-5.89zm-11.058 8.97c-.853-2.607-2.692-4.441-5.596-4.441-3.926 0-6.312 3.669-6.312 10.886-.092 7.217 2.044 10.89 6.485 10.89 2.643 0 4.272-.938 6.022-4.567l5.46 1.449c-1.835 5.338-5.846 8.073-11.482 8.073-7.857 0-12.383-5.768-12.383-15.845 0-10.074 4.526-15.842 12.383-15.842 5.897 0 9.309 2.65 10.765 8.114zm-53.587 21.863v-30.831h20.412v4.952h-14.515v7.346h10.544v4.952h-10.544v8.629h14.985v4.952zm-4.435-30.877v4.956h-8.074v25.923h-5.89v-25.923h-8.077v-4.956zm-41.383 13.54h4.357c4.607 0 6.022-1.451 6.022-4.356 0-2.904-1.754-4.356-5-4.356h-5.379zm-5.893 17.335v-30.83h12.294c7.004 0 9.827 4.058 9.868 9.14.04 3.797-1.879 6.874-5.64 7.94l6.794 13.75H90.07l-5.805-12.555h-5.08v12.555zm-19.902-11.528h7.18l-3.46-13.408h-.087l-3.633 13.408zm-.08-19.349h7.341l8.754 30.879h-5.846l-1.713-6.662h-9.732l-1.838 6.662h-5.85zm-15.757 6.11h-2.559v-6.062h5.89v6.062l-2.74 6.408h-2.768zm-24.805 19.814h3.93c6.743 0 8.32-4.952 8.32-10.463 0-5.507-1.577-10.463-8.32-10.463h-3.93zM6.85 288.786h10.206c8.162 0 13.794 4.526 13.838 15.412-.044 10.89-5.676 15.416-13.838 15.416H6.85Zm510.825-12.909v-30.834h20.42v4.955h-14.52v7.346h10.541v4.956h-10.54v8.625h14.981v4.952zm-24.204 0v-30.834h5.886v25.882h13.412v4.952zm-20.11-11.53h7.168l-3.452-13.407h-.085l-3.632 13.408zm-.085-19.345h7.342l8.757 30.875h-5.85l-1.712-6.662h-9.74l-1.827 6.662h-5.853zm-37.022 30.875v-30.834h6.15l12.13 21.01h.084v-21.01h5.555v30.834h-5.68L441.89 253.93h-.081v21.948h-5.555zm-17.93-26.304c-4.824 0-7.045 3.673-7.045 10.89-.085 7.216 2.176 10.89 7.044 10.89 4.824 0 7.048-3.674 7.048-10.89 0-7.217-2.224-10.89-7.048-10.89m0 26.731c-8.415 0-12.941-5.764-12.941-15.842 0-10.08 4.526-15.841 12.941-15.841 8.412 0 12.941 5.76 12.941 15.841 0 10.078-4.53 15.842-12.94 15.842m-24.507-31.26h5.897v30.835h-5.897zm-5.465 30.833h-21.953v-5l14.398-20.879h-13.412v-4.955h20.842v4.698l-14.908 21.184h15.033zm-39.41-11.53h7.177l-3.46-13.407h-.085l-3.632 13.408zm-.08-19.345h7.337l8.758 30.875h-5.85l-1.709-6.662h-9.735l-1.835 6.662h-5.853zm-37.029 30.875v-30.834h6.158l12.122 21.01h.088v-21.01h5.551v30.834h-5.68l-12.6-21.948h-.084v21.948h-5.555zm-22.92-17.337h4.352c4.614 0 6.023-1.455 6.023-4.356s-1.75-4.357-4.997-4.357h-5.378zm-5.898 17.339v-30.835h12.302c7.004 0 9.824 4.059 9.864 9.14.04 3.801-1.882 6.875-5.636 7.941l6.787 13.754h-6.533l-5.806-12.56h-5.08v12.56zm-26.043-.001v-30.835h20.415V250h-14.522v7.346h10.548v4.955h-10.548v8.625h14.99v4.953zm-4.655-30.874v4.952h-8.066v25.923h-5.897v-25.923h-8.074v-4.952zm-50.466 30.874v-30.835H208l12.129 21.011h.08v-21.01h5.552v30.834h-5.68l-12.595-21.949h-.085v21.949h-5.552zm-13.748-30.833h5.89v30.834h-5.89zm-32.707 19.303h7.173l-3.46-13.408h-.08l-3.633 13.408zm-.085-19.345h7.346l8.754 30.875h-5.85l-1.71-6.662h-9.738l-1.831 6.662h-5.857zm-28.69 13.538h4.353c4.61 0 6.022-1.456 6.022-4.357 0-2.9-1.75-4.356-4.996-4.356h-5.38zm-5.894 17.338v-30.834h12.298c7.004 0 9.817 4.058 9.864 9.14.04 3.8-1.878 6.874-5.636 7.94l6.787 13.754h-6.533l-5.809-12.559h-5.077v12.56zm-4.184-30.875v4.952h-8.07v25.923h-5.894v-25.923h-8.07v-4.952zm-31.081 8.241c-.897-2.393-2.735-4.014-5.507-4.014-2.567 0-4.401 1.025-4.401 3.415 0 5.298 15.886 4.188 15.886 14.18 0 6.32-3.97 9.478-10.805 9.478-5.04 0-9.78-2.82-11.53-7.301l4.872-2.136c1.4 2.904 3.239 4.827 6.698 4.827 2.949 0 5.213-1.11 5.213-4.103 0-6.063-15.886-4.868-15.886-14.346 0-5.507 4.61-8.625 9.953-8.625 4.948 0 9.047 2.475 10.882 6.96zm-32.155-3.672c-4.823 0-7.047 3.673-7.047 10.89-.089 7.217 2.18 10.89 7.047 10.89 4.824 0 7.048-3.673 7.048-10.89 0-7.217-2.224-10.89-7.048-10.89m0 26.732c-8.415 0-12.937-5.765-12.937-15.842 0-10.081 4.522-15.842 12.937-15.842 8.412 0 12.942 5.761 12.942 15.842 0 10.077-4.53 15.842-12.942 15.842m-46.326-.427v-30.835h8.283L21.2 266.57h.085l5.982-21.526h8.364v30.835H30.51V251.62h-.085l-6.922 24.258H19.02l-6.835-24.258h-.08v24.258H6.98z"/></svg>